<svg width="24" height="24" viewBox="0 0 24 24" fill="none" xmlns="http://www.w3.org/2000/svg">
<path fill-rule="evenodd" clip-rule="evenodd" d="M11.9991 0.295898C5.37336 0.295898 0 5.66854 0 12.2965C0 17.5976 3.4381 22.0958 8.20663 23.6833C8.80702 23.7931 9.02582 23.4225 9.02582 23.1043C9.02582 22.8192 9.01538 22.0648 9.00911 21.0637C5.67121 21.7885 4.96695 19.4548 4.96695 19.4548C4.42107 18.0683 3.63429 17.6993 3.63429 17.6993C2.54474 16.9552 3.71677 16.9699 3.71677 16.9699C4.92124 17.0547 5.55479 18.2068 5.55479 18.2068C6.62519 20.0404 8.36375 19.5108 9.04739 19.2036C9.1564 18.4286 9.46656 17.8996 9.80911 17.5998C7.14456 17.2963 4.34295 16.2672 4.34295 11.6688C4.34295 10.3582 4.81075 9.28784 5.57837 8.44877C5.45453 8.14524 5.0428 6.92527 5.69635 5.2729C5.69635 5.2729 6.70338 4.95026 8.99594 6.50246C9.95289 6.2365 10.9798 6.1039 12.0001 6.09875C13.0197 6.10292 14.0459 6.23657 15.0043 6.50246C17.2954 4.95026 18.3009 5.2729 18.3009 5.2729C18.9558 6.92527 18.544 8.14524 18.421 8.44877C19.1901 9.28784 19.6542 10.3582 19.6542 11.6688C19.6542 16.2789 16.8482 17.2933 14.1755 17.5902C14.6057 17.9607 14.9895 18.693 14.9895 19.8128C14.9895 21.4165 14.9749 22.7109 14.9749 23.1043C14.9749 23.4255 15.1915 23.799 15.8 23.6818C20.5649 22.0914 24 17.5969 24 12.2965C24 5.66854 18.6267 0.295898 11.9987 0.295898" fill="#00D2DF"/>
</svg>
