<svg width="24" height="24" viewBox="0 0 24 24" fill="none" xmlns="http://www.w3.org/2000/svg">
<path d="M0 0H24V24H0V0Z" fill="#00D2DF"/>
<path d="M6.3104 20.0559L8.14696 18.9444C8.50133 19.5727 8.82365 20.1042 9.5968 20.1042C10.3379 20.1042 10.8052 19.8143 10.8052 18.6867V11.0182H13.0606V18.7186C13.0606 21.0546 11.6913 22.1179 9.69346 22.1179C7.88924 22.1179 6.84196 21.1835 6.3103 20.0558L6.3104 20.0559ZM14.2856 19.8143L16.122 18.751C16.6055 19.5405 17.2338 20.1204 18.3453 20.1204C19.2799 20.1204 19.8757 19.6532 19.8757 19.0088C19.8757 18.2355 19.2636 17.9616 18.2325 17.5106L17.6688 17.2688C16.0416 16.5762 14.9622 15.7062 14.9622 13.8697C14.9622 12.178 16.251 10.8892 18.2648 10.8892C19.6986 10.8892 20.7297 11.3887 21.4707 12.6936L19.7146 13.8214C19.3279 13.1287 18.9092 12.8548 18.2647 12.8548C17.6042 12.8548 17.1853 13.2737 17.1853 13.8214C17.1853 14.498 17.6042 14.772 18.5707 15.1909L19.1346 15.4325C21.0517 16.2542 22.1311 17.0918 22.1311 18.9766C22.1311 21.0067 20.5362 22.1182 18.3936 22.1182C16.2993 22.1182 14.946 21.1193 14.2855 19.8143" fill="black"/>
</svg>
