<svg width="25" height="25" viewBox="0 0 25 25" fill="none" xmlns="http://www.w3.org/2000/svg">
<g clip-path="url(#clip0_310_1592)">
<path d="M6.39581 24.1416V7.94885H1.25036V24.1416H6.39581ZM3.82375 5.73667C5.61806 5.73667 6.73493 4.49326 6.73493 2.9394C6.7015 1.35051 5.61813 0.141602 3.8578 0.141602C2.09774 0.141602 0.946777 1.35053 0.946777 2.9394C0.946777 4.49333 2.06337 5.73667 3.79016 5.73667H3.82359H3.82375ZM9.2438 24.1416H14.3893V15.0988C14.3893 14.6148 14.4227 14.1314 14.5586 13.7854C14.9305 12.8185 15.7772 11.817 17.1986 11.817C19.0605 11.817 19.8054 13.3019 19.8054 15.4787V24.1415H24.9505V14.8567C24.9505 9.88294 22.412 7.56869 19.0266 7.56869C16.2508 7.56869 15.0321 9.19162 14.355 10.297H14.3894V7.94851H9.24392C9.31144 9.46795 9.24392 24.1413 9.24392 24.1413L9.2438 24.1416Z" fill="white"/>
</g>
<defs>
<clipPath id="clip0_310_1592">
<rect width="24" height="24" fill="white" transform="translate(0.946777 0.141602)"/>
</clipPath>
</defs>
</svg>
