<svg width="24" height="24" viewBox="0 0 24 24" fill="none" xmlns="http://www.w3.org/2000/svg">
<path d="M20.4 0H3.6C2.64522 0 1.72955 0.474106 1.05442 1.31802C0.379285 2.16193 0 3.30653 0 4.5V19.5C0 20.6935 0.379285 21.8381 1.05442 22.682C1.72955 23.5259 2.64522 24 3.6 24H20.4C21.3548 24 22.2705 23.5259 22.9456 22.682C23.6207 21.8381 24 20.6935 24 19.5V4.5C24 3.30653 23.6207 2.16193 22.9456 1.31802C22.2705 0.474106 21.3548 0 20.4 0V0ZM19.908 3L12.852 11.82C12.7404 11.9606 12.6077 12.0722 12.4615 12.1483C12.3153 12.2245 12.1584 12.2637 12 12.2637C11.8416 12.2637 11.6847 12.2245 11.5385 12.1483C11.3923 12.0722 11.2596 11.9606 11.148 11.82L4.092 3H19.908ZM21.6 19.5C21.6 19.8978 21.4736 20.2794 21.2485 20.5607C21.0235 20.842 20.7183 21 20.4 21H3.6C3.28174 21 2.97652 20.842 2.75147 20.5607C2.52643 20.2794 2.4 19.8978 2.4 19.5V5.115L9.456 13.935C10.131 14.7777 11.046 15.251 12 15.251C12.954 15.251 13.869 14.7777 14.544 13.935L21.6 5.115V19.5Z" fill="#00D2DF"/>
</svg>
