<svg width="32" height="32" viewBox="0 0 32 32" fill="none" xmlns="http://www.w3.org/2000/svg">
<g clip-path="url(#clip0_928_6697)">
<path d="M26.4531 22.8125L24.7031 29H5.54688V28.3438C6.19271 28.3021 6.71354 28.2292 7.10938 28.125C7.52604 28.0208 7.83854 27.8542 8.04688 27.625C8.27604 27.3958 8.43229 27.0833 8.51562 26.6875C8.59896 26.2917 8.64062 25.7812 8.64062 25.1562V9.28125C8.64062 8.65625 8.59896 8.14583 8.51562 7.75C8.45312 7.35417 8.30729 7.04167 8.07812 6.8125C7.84896 6.58333 7.52604 6.41667 7.10938 6.3125C6.71354 6.20833 6.19271 6.13542 5.54688 6.09375V5.375H15.5781V6.09375C14.8698 6.13542 14.2969 6.20833 13.8594 6.3125C13.4219 6.39583 13.0885 6.5625 12.8594 6.8125C12.6302 7.04167 12.474 7.35417 12.3906 7.75C12.3073 8.14583 12.2656 8.65625 12.2656 9.28125V26.1562C12.2656 26.4688 12.2969 26.7292 12.3594 26.9375C12.4427 27.125 12.599 27.2708 12.8281 27.375C13.0573 27.4792 13.3698 27.5521 13.7656 27.5938C14.1615 27.6146 14.6927 27.625 15.3594 27.625H17.7344C19.2552 27.625 20.5156 27.4479 21.5156 27.0938C22.5365 26.7396 23.3698 26.1979 24.0156 25.4688C24.2656 25.1771 24.5052 24.8125 24.7344 24.375C24.9844 23.9375 25.2552 23.4167 25.5469 22.8125H26.4531Z" fill="#EE4B00"/>
</g>
<defs>
<clipPath id="clip0_928_6697">
<rect width="32" height="32" fill="white"/>
</clipPath>
</defs>
</svg>
